<?xml version="1.0" encoding="iso-8859-1"?>
<!-- Generator: Adobe Illustrator 19.0.0, SVG Export Plug-In . SVG Version: 6.00 Build 0)  -->
<svg version="1.1" id="Layer_1" xmlns="http://www.w3.org/2000/svg" xmlns:xlink="http://www.w3.org/1999/xlink" x="0px" y="0px"
	 viewBox="0 0 512 512" style="enable-background:new 0 0 512 512;" xml:space="preserve">
<g>
	<g>
		<g>
			<path d="M185.535,225.527l-96.29-55.595c-12.143,23.415-19.507,49.69-20.762,77.534h111.224
				C180.56,239.753,182.557,232.388,185.535,225.527z"/>
			<path d="M179.701,264.533H68.486c1.254,27.844,8.619,54.11,20.762,77.534l96.29-55.595
				C182.56,279.612,180.563,272.247,179.701,264.533z"/>
			<path d="M282.74,183.464l55.526-96.171c-22.443-10.991-47.386-17.621-73.737-18.807v111.215
				c7.441,0.828,14.566,2.697,21.214,5.504L282.74,183.464z"/>
			<path d="M226.255,185.199c6.647-2.799,13.773-4.668,21.214-5.495V68.48c-26.342,1.186-51.285,7.825-73.737,18.816l55.526,96.171
				L226.255,185.199z"/>
			<path d="M315.733,256c0-32.939-26.803-59.733-59.733-59.733c-32.93,0-59.733,26.795-59.733,59.733S223.07,315.733,256,315.733
				C288.93,315.733,315.733,288.939,315.733,256z M256,290.133c-18.825,0-34.133-15.309-34.133-34.133
				c0-18.825,15.309-34.133,34.133-34.133c18.825,0,34.133,15.309,34.133,34.133C290.133,274.825,274.825,290.133,256,290.133z"/>
			<path d="M169.967,422.772c23.415,12.126,49.664,19.49,77.5,20.745V332.293c-7.697-0.853-15.053-2.842-21.905-5.811
				L169.967,422.772z"/>
			<path d="M264.53,332.3v111.215c27.836-1.254,54.093-8.61,77.5-20.736l-55.595-96.299
				C279.591,329.45,272.236,331.438,264.53,332.3z"/>
			<path d="M256,238.933c-9.412,0-17.067,7.654-17.067,17.067c0,9.412,7.654,17.067,17.067,17.067
				c9.412,0,17.067-7.654,17.067-17.067C273.067,246.588,265.412,238.933,256,238.933z"/>
			<path d="M317.915,210.755l96.307-55.603c-15.505-24.235-36.369-44.715-60.971-59.682l-55.509,96.154
				C305.585,196.726,312.403,203.22,317.915,210.755z"/>
			<path d="M194.086,301.251l-96.307,55.603c14.746,23.04,34.364,42.658,57.404,57.387l55.603-96.299
				C204.394,313.266,198.762,307.633,194.086,301.251z"/>
			<path d="M301.216,317.939l55.603,96.307c23.04-14.737,42.658-34.355,57.404-57.395l-96.307-55.603
				C313.231,307.639,307.608,313.263,301.216,317.939z"/>
			<path d="M256,0C114.842,0,0,114.842,0,256s114.842,256,256,256s256-114.842,256-256S397.158,0,256,0z M256,460.8
				c-112.922,0-204.8-91.878-204.8-204.8S143.078,51.2,256,51.2S460.8,143.078,460.8,256S368.922,460.8,256,460.8z"/>
			<path d="M332.299,247.467h111.215c-1.254-27.844-8.619-54.118-20.762-77.534l-96.29,55.595
				C329.44,232.388,331.437,239.753,332.299,247.467z"/>
			<path d="M214.257,191.62l-55.509-96.145c-24.602,14.959-45.466,35.447-60.971,59.674l96.307,55.603
				C199.605,203.226,206.423,196.723,214.257,191.62z"/>
			<path d="M332.293,264.533c-0.853,7.714-2.85,15.078-5.828,21.939l96.29,55.595c12.143-23.424,19.507-49.69,20.762-77.534H332.293
				z"/>
		</g>
	</g>
</g>
<g>
</g>
<g>
</g>
<g>
</g>
<g>
</g>
<g>
</g>
<g>
</g>
<g>
</g>
<g>
</g>
<g>
</g>
<g>
</g>
<g>
</g>
<g>
</g>
<g>
</g>
<g>
</g>
<g>
</g>
</svg>
